<svg id="Layer_1" data-name="Layer 1" xmlns="http://www.w3.org/2000/svg" viewBox="0 0 178.47 171.54"><defs><style>.cls-1{fill:#4f070d;}.cls-2{fill:none;stroke:#d22b27;stroke-linecap:round;stroke-linejoin:round;stroke-width:5px;}.cls-3{font-size:30.98px;fill:#ff680d;font-family:Cocogoose;}.cls-4{letter-spacing:-0.03em;}</style></defs><circle class="cls-1" cx="86.16" cy="59.72" r="59.72"/><line class="cls-2" x1="157.44" y1="34.21" x2="62.01" y2="59.78"/><path class="cls-2" d="M507.52,254.64l-18.54,5a10,10,0,0,1-12.25-7.07h0a10,10,0,0,1,7.07-12.25l7.37-2a11.57,11.57,0,0,0,8.18-14.17h0a10,10,0,0,0-12.25-7.07l-92.05,24.66A10,10,0,0,0,388,254l3.38,12.61A9.16,9.16,0,0,1,383.9,278l-22.29,3.43a11.51,11.51,0,1,0,5.58,22.16l21.35-8.3a9.15,9.15,0,0,1,12.16,6.16l3.38,12.61a10,10,0,0,0,12.24,7.07l92.06-24.66a10,10,0,0,0,7.07-12.25l-.25-.94-1.51-5.61h0a7.31,7.31,0,0,0-9-5.18l-88.36,23.67s5.7-18.35,50.53-30.36l4.2,15.7" transform="translate(-347.49 -210.78)"/><text class="cls-3" transform="translate(0 158.64)">My <tspan class="cls-4" x="61.44" y="0">R</tspan><tspan x="82.18" y="0">ecipe</tspan></text></svg>